<svg width="45" height="43" viewBox="0 0 45 43" fill="none" xmlns="http://www.w3.org/2000/svg">
<path d="M22.8727 27.859C20.135 27.859 17.908 25.6819 17.908 23.0053C17.908 20.329 20.135 18.1514 22.8727 18.1514C25.6102 18.1514 27.8374 20.329 27.8374 23.0053C27.8374 25.6819 25.6102 27.859 22.8727 27.859ZM19.4876 6.24314C19.4876 4.41822 21.0061 2.93375 22.8727 2.93375C24.7394 2.93375 26.2578 4.41822 26.2578 6.24314C26.2578 8.06807 24.7394 9.55253 22.8727 9.55253C21.0061 9.55253 19.4876 8.06807 19.4876 6.24314ZM9.7862 18.8481C9.3315 20.2164 8.03859 21.1364 6.56865 21.1364C6.21422 21.1364 5.86162 21.0813 5.52056 20.9729C3.7454 20.4088 2.77057 18.5382 3.34761 16.8023C3.80247 15.434 5.09607 14.5147 6.56647 14.5147C6.92044 14.5147 7.27201 14.5698 7.6129 14.6777C8.47261 14.9509 9.17229 15.5354 9.58298 16.3234C9.99329 17.1115 10.0657 18.0079 9.7862 18.8481ZM30.5455 23.0053C30.5455 19.2449 27.9245 16.2049 24.2278 15.6684V11.6975C26.7996 11.1847 28.5144 8.90706 28.5144 6.24314C28.5144 3.2016 25.9836 0.72735 22.8727 0.72735C19.7618 0.72735 17.2311 3.2016 17.2311 6.24314C17.2311 8.90706 19.3995 11.1847 21.9711 11.6975V15.6684C19.4549 16.0335 17.1106 17.5181 16.0123 19.6659L12.1738 18.4465C12.2994 17.3805 12.1037 16.3014 11.5937 15.3227C10.9097 14.0094 9.74335 13.0349 8.31028 12.5799C7.74426 12.3995 7.15752 12.3082 6.56647 12.3082C4.11534 12.3082 1.95926 13.8404 1.20118 16.1207C0.23985 19.0133 1.86498 22.1313 4.82323 23.0712C5.39005 23.2509 5.97713 23.3427 6.56865 23.3427C8.634 23.3427 10.4866 22.251 11.4726 20.5435L15.3141 21.7638C15.2447 22.1685 15.1999 22.5815 15.1999 23.0053C15.1999 27.142 18.6417 30.5069 22.8727 30.5069C27.1035 30.5069 30.5455 27.142 30.5455 23.0053ZM42.1942 19.327C41.7837 20.1155 41.0844 20.6995 40.2236 20.9729C39.8827 21.081 39.5307 21.136 39.1775 21.136C37.7071 21.136 36.4132 20.2164 35.9582 18.8481C35.3818 17.1127 36.3572 15.2417 38.1321 14.6777C38.4735 14.5698 38.8255 14.5147 39.1796 14.5147C40.6491 14.5147 41.943 15.4345 42.398 16.8031C42.6769 17.643 42.6047 18.5394 42.1942 19.327ZM44.5446 16.1211C43.7859 13.8404 41.6299 12.3082 39.1796 12.3082C38.5888 12.3082 38.0018 12.3995 37.435 12.5799C34.8437 13.4028 33.2759 15.897 33.5718 18.4473L31.9902 18.9499L32.6876 21.0483L34.2725 20.5443C35.2593 22.2514 37.112 23.3424 39.1775 23.3424C39.7683 23.3424 40.3552 23.2509 40.9208 23.0712C42.3548 22.616 43.5211 21.642 44.2054 20.3287C44.8889 19.0158 45.0094 17.5215 44.5446 16.1211ZM34.9395 39.2435C34.3576 39.6566 33.6709 39.8754 32.9537 39.8754C31.8713 39.8754 30.846 39.3656 30.2114 38.5112C29.1143 37.0354 29.4502 34.9609 30.9598 33.888C31.5428 33.4741 32.2295 33.2557 32.9462 33.2557C34.0284 33.2557 35.0536 33.7658 35.6887 34.6205C36.7852 36.0968 36.4495 38.1713 34.9395 39.2435ZM32.9462 31.0492C32.1317 31.0492 31.3428 31.2222 30.6147 31.5473L29.6354 30.2299L27.8098 31.5268L28.7872 32.8422C27.015 34.7355 26.7845 37.654 28.3857 39.8078C29.4437 41.2317 31.1509 42.0817 32.9537 42.0817C34.1508 42.0817 35.2959 41.7173 36.2662 41.0283C38.7823 39.2414 39.3423 35.7851 37.5144 33.3236C36.4563 31.8994 34.7482 31.0492 32.9462 31.0492ZM15.5336 38.5112C14.8986 39.3661 13.8733 39.8762 12.7917 39.8762C12.0752 39.8762 11.3878 39.6569 10.8051 39.2431C9.29511 38.1708 8.95921 36.0968 10.0566 34.6205C10.691 33.7661 11.7164 33.2563 12.7987 33.2563C13.5162 33.2563 14.2029 33.4746 14.7849 33.8885C16.2949 34.9609 16.6307 37.035 15.5336 38.5112ZM17.9346 31.526L16.109 30.2294L15.1298 31.5473C14.4018 31.2222 13.6129 31.05 12.7987 31.05C10.9962 31.05 9.28861 31.9002 8.23065 33.3239C6.40248 35.7841 6.9623 39.2404 9.4785 41.0283C10.4495 41.7178 11.5949 42.0822 12.7917 42.0822C14.5932 42.0822 16.3004 41.2325 17.3592 39.8083C18.961 37.653 18.73 34.7341 16.9574 32.8414L17.9346 31.526Z" fill="url(#paint0_linear)"/>
<defs>
<linearGradient id="paint0_linear" x1="37.2684" y1="8.41665" x2="8.04279" y2="39.7572" gradientUnits="userSpaceOnUse">
<stop stop-color="#00B5CB"/>
<stop offset="1" stop-color="#2370E1"/>
</linearGradient>
</defs>
</svg>
