<svg width="36" height="36" viewBox="0 0 36 36" fill="none" xmlns="http://www.w3.org/2000/svg">
<path d="M0.876038 7.23059C0.876038 3.60622 3.81417 0.668091 7.43854 0.668091H29.3135C32.9379 0.668091 35.876 3.60622 35.876 7.23059V29.1056C35.876 32.73 32.9379 35.6681 29.3135 35.6681H7.43854C3.81417 35.6681 0.876038 32.73 0.876038 29.1056V7.23059Z" fill="#78BD20"/>
<path d="M29.2291 10.0432C29.7538 7.16821 28.9466 5.16821 25.637 5.16821H15.3452L14.3765 10.2099H23.1347C23.6594 10.2099 23.8208 10.5015 23.7401 11.1265L22.61 17.1265H17.1614L17.9686 12.9599L5.37616 19.2099H14.7397L13.9325 23.3766L22.2064 19.2932L21.1167 25.2099C20.9552 25.7932 20.6727 26.0849 20.0269 26.0849H11.3495L10.4212 31.1682H20.7534C24.0226 31.1682 25.637 29.1682 26.1213 26.2932L29.2291 10.0432Z" fill="black"/>
</svg>
