<svg width="41" height="41" viewBox="0 0 41 41" fill="none" xmlns="http://www.w3.org/2000/svg">
<path d="M40.876 20.6681C40.876 31.7094 31.9174 40.6681 20.876 40.6681C9.83471 40.6681 0.876038 31.7094 0.876038 20.6681C0.876038 9.62676 9.83471 0.668091 20.876 0.668091C31.9174 0.668091 40.876 9.62676 40.876 20.6681Z" fill="white"/>
<path d="M38.0335 20.6686C38.0335 30.1232 30.3641 37.8257 20.8765 37.8257C11.3889 37.8257 3.71948 30.1562 3.71948 20.6686C3.71948 11.181 11.3889 3.5116 20.8765 3.5116C30.3641 3.5116 38.0335 11.2141 38.0335 20.6686Z" fill="#ED1D24"/>
<path d="M31.223 27.6436C31.223 28.3379 30.661 28.8999 29.9668 28.8999C29.2726 28.8999 28.7106 28.3379 28.7106 27.6436C28.7106 26.9494 29.2726 26.3875 29.9668 26.3875C30.6941 26.3875 31.223 26.9494 31.223 27.6436Z" fill="white"/>
<path d="M15.7526 28.337C14.4303 26.9486 15.4551 24.2709 15.6865 22.023C15.389 22.3205 12.579 28.899 10.0005 28.899C9.96747 28.899 9.90136 28.899 9.8683 28.899C7.52119 28.6676 7.81871 25.4279 8.54599 23.4775H12.3146C11.1576 26.6841 12.7443 25.3618 13.8352 23.3453C16.0171 18.9155 16.0501 18.8164 18.4303 12.1387H22.5956C21.3724 15.9403 20.3146 19.3453 19.8187 23.2792C19.8187 23.4114 19.8848 23.5767 20.0501 23.5106C20.9096 23.3783 25.5708 12.8659 26.0005 12.1387H30.1658C30.1658 12.1387 25.7361 24.3701 26.4633 25.5271C26.827 26.1883 27.3228 24.9321 27.7856 24.4362L28.4468 25.0974C27.2237 26.4527 25.8352 28.9321 23.8848 28.9321C23.7195 28.9321 23.5873 28.899 23.422 28.899C23.1245 28.8329 22.827 28.6676 22.6286 28.4692C20.3807 26.5188 24.4468 19.2461 24.0171 18.7833C23.8848 18.7833 23.7526 19.1469 23.5212 19.6428C22.298 22.1883 19.4551 28.9321 17.108 28.9321C16.7113 28.899 16.1493 28.7668 15.7526 28.337Z" fill="white"/>
</svg>
