<svg width="61" height="61" viewBox="0 0 61 61" fill="none" xmlns="http://www.w3.org/2000/svg">
<path d="M24.876 22.3676L39.8169 30.6681L24.876 38.9686L24.876 22.3676Z" stroke="#319559" stroke-width="2"/>
<path fill-rule="evenodd" clip-rule="evenodd" d="M40.845 9.93496L47.167 20.8851C47.2853 21.0817 47.4002 21.2806 47.5115 21.4817L50.5059 26.6682L52.5883 23.0614C50.5655 17.287 46.3041 12.5647 40.845 9.93496ZM35.1458 8.06367C33.7622 7.80394 32.335 7.66809 30.876 7.66809C26.0666 7.66809 21.602 9.14421 17.9106 11.6681H30.8759H37.2268L35.1458 8.06367ZM53.8122 28.9417L47.5078 39.8612C47.3989 40.0578 47.2866 40.2523 47.171 40.4445L44.1552 45.6681H48.3121C51.7797 41.641 53.876 36.3993 53.876 30.6681C53.876 30.0873 53.8545 29.5116 53.8122 28.9417ZM43.8414 49.6681H30.8759H24.5253L26.6063 53.2725C27.9898 53.5323 29.417 53.6681 30.876 53.6681C35.6853 53.6681 40.1499 52.192 43.8414 49.6681ZM20.9071 51.4013L14.5918 40.4628C14.4687 40.2585 14.3493 40.0517 14.2337 39.8425L11.2462 34.6681L9.16371 38.275C11.1867 44.0494 15.448 48.7717 20.9071 51.4013ZM7.93982 32.3949L14.2345 21.4921C14.3496 21.284 14.4684 21.0782 14.5909 20.8749L17.597 15.6681H13.4399C9.97224 19.6952 7.87598 24.9368 7.87598 30.6681C7.87598 31.249 7.89751 31.8248 7.93982 32.3949Z" fill="#7981FB"/>
</svg>
