<svg width="61" height="61" viewBox="0 0 61 61" fill="none" xmlns="http://www.w3.org/2000/svg">
<mask id="path-1-inside-1" fill="white">
<path d="M3.87598 42.6681C3.87598 50.9524 10.5917 57.6681 18.876 57.6681V59.6681C9.48713 59.6681 1.87598 52.0569 1.87598 42.6681H3.87598Z"/>
<path d="M57.876 18.6681C57.876 10.3838 51.1602 3.66809 42.876 3.66809V1.66809C52.2648 1.66809 59.876 9.27925 59.876 18.6681H57.876Z"/>
<path d="M7.87598 42.6681C7.87598 48.7432 12.8008 53.6681 18.876 53.6681V55.6681C11.6963 55.6681 5.87598 49.8478 5.87598 42.6681H7.87598Z"/>
<path d="M53.876 18.6681C53.876 12.593 48.9511 7.66809 42.876 7.66809V5.66809C50.0557 5.66809 55.876 11.4884 55.876 18.6681H53.876Z"/>
<path d="M42.876 11.6681C46.742 11.6681 49.876 14.8021 49.876 18.6681H51.876C51.876 13.6975 47.8465 9.66809 42.876 9.66809V11.6681Z"/>
<path d="M18.876 49.6681C15.01 49.6681 11.876 46.5341 11.876 42.6681H9.87598C9.87598 47.6387 13.9054 51.6681 18.876 51.6681V49.6681Z"/>
</mask>
<path d="M18.876 57.6681H20.876V55.6681H18.876V57.6681ZM3.87598 42.6681H5.87598V40.6681H3.87598V42.6681ZM42.876 3.66809H40.876V5.66809H42.876V3.66809ZM57.876 18.6681H55.876V20.6681H57.876V18.6681ZM18.876 59.6681V61.6681H20.876V59.6681H18.876ZM1.87598 42.6681V40.6681H-0.124023V42.6681H1.87598ZM42.876 1.66809V-0.331909H40.876V1.66809H42.876ZM59.876 18.6681V20.6681H61.876V18.6681H59.876ZM18.876 53.6681H20.876V51.6681H18.876V53.6681ZM7.87598 42.6681H9.87598V40.6681H7.87598V42.6681ZM42.876 7.66809H40.876V9.66809H42.876V7.66809ZM53.876 18.6681H51.876V20.6681H53.876V18.6681ZM18.876 55.6681V57.6681H20.876V55.6681H18.876ZM5.87598 42.6681V40.6681H3.87598V42.6681H5.87598ZM42.876 5.66809V3.66809H40.876V5.66809H42.876ZM55.876 18.6681V20.6681H57.876V18.6681H55.876ZM49.876 18.6681H47.876V20.6681H49.876V18.6681ZM42.876 11.6681H40.876V13.6681H42.876V11.6681ZM11.876 42.6681H13.876V40.6681H11.876V42.6681ZM18.876 49.6681H20.876V47.6681H18.876V49.6681ZM51.876 18.6681V20.6681H53.876V18.6681H51.876ZM42.876 9.66809V7.66809H40.876V9.66809H42.876ZM9.87598 42.6681V40.6681H7.87598V42.6681H9.87598ZM18.876 51.6681V53.6681H20.876V51.6681H18.876ZM18.876 55.6681C11.6963 55.6681 5.87598 49.8478 5.87598 42.6681H1.87598C1.87598 52.0569 9.48714 59.6681 18.876 59.6681V55.6681ZM42.876 5.66809C50.0557 5.66809 55.876 11.4884 55.876 18.6681H59.876C59.876 9.27925 52.2648 1.66809 42.876 1.66809V5.66809ZM18.876 57.6681C10.5917 57.6681 3.87598 50.9524 3.87598 42.6681H-0.124023C-0.124023 53.1615 8.38257 61.6681 18.876 61.6681V57.6681ZM42.876 3.66809C51.1602 3.66809 57.876 10.3838 57.876 18.6681H61.876C61.876 8.17468 53.3694 -0.331909 42.876 -0.331909V3.66809ZM18.876 51.6681C13.9054 51.6681 9.87598 47.6387 9.87598 42.6681H5.87598C5.87598 49.8478 11.6963 55.6681 18.876 55.6681V51.6681ZM42.876 9.66809C47.8465 9.66809 51.876 13.6975 51.876 18.6681H55.876C55.876 11.4884 50.0557 5.66809 42.876 5.66809V9.66809ZM18.876 53.6681C12.8008 53.6681 7.87598 48.7432 7.87598 42.6681H3.87598C3.87598 50.9524 10.5917 57.6681 18.876 57.6681V53.6681ZM42.876 7.66809C48.9511 7.66809 53.876 12.593 53.876 18.6681H57.876C57.876 10.3838 51.1602 3.66809 42.876 3.66809V7.66809ZM51.876 18.6681C51.876 13.6975 47.8465 9.66809 42.876 9.66809V13.6681C45.6374 13.6681 47.876 15.9067 47.876 18.6681H51.876ZM9.87598 42.6681C9.87598 47.6387 13.9054 51.6681 18.876 51.6681V47.6681C16.1146 47.6681 13.876 45.4295 13.876 42.6681H9.87598ZM53.876 18.6681C53.876 12.593 48.9511 7.66809 42.876 7.66809V11.6681C46.742 11.6681 49.876 14.8021 49.876 18.6681H53.876ZM7.87598 42.6681C7.87598 48.7432 12.8008 53.6681 18.876 53.6681V49.6681C15.01 49.6681 11.876 46.5341 11.876 42.6681H7.87598ZM11.876 40.6681H9.87598V44.6681H11.876V40.6681ZM7.87598 40.6681H5.87598V44.6681H7.87598V40.6681ZM3.87598 40.6681H1.87598V44.6681H3.87598V40.6681ZM16.876 49.6681V51.6681H20.876V49.6681H16.876ZM16.876 53.6681V55.6681H20.876V53.6681H16.876ZM16.876 57.6681V59.6681H20.876V57.6681H16.876ZM49.876 20.6681H51.876V16.6681H49.876V20.6681ZM53.876 20.6681H55.876V16.6681H53.876V20.6681ZM57.876 20.6681H59.876V16.6681H57.876V20.6681ZM44.876 11.6681V9.66809H40.876V11.6681H44.876ZM44.876 7.66809V5.66809H40.876V7.66809H44.876ZM44.876 3.66809V1.66809H40.876V3.66809H44.876Z" fill="#5FBAFF" mask="url(#path-1-inside-1)"/>
<path d="M16.876 20.6681C16.876 18.459 18.6668 16.6681 20.876 16.6681H40.876C43.0851 16.6681 44.876 18.459 44.876 20.6681V40.6681C44.876 42.8772 43.0851 44.6681 40.876 44.6681H20.876C18.6668 44.6681 16.876 42.8772 16.876 40.6681V20.6681Z" stroke="#E83D43" stroke-width="2"/>
<circle cx="30.876" cy="30.6681" r="5" stroke="#E83D43" stroke-width="2"/>
<circle cx="38.376" cy="23.1681" r="1.5" fill="#E83D43"/>
</svg>
